<?xml version="1.0" standalone="no"?>
<!DOCTYPE svg PUBLIC "-//W3C//DTD SVG 20010904//EN"
 "http://www.w3.org/TR/2001/REC-SVG-20010904/DTD/svg10.dtd">
<svg version="1.0" xmlns="http://www.w3.org/2000/svg"
 width="192.000000pt" height="192.000000pt" viewBox="0 0 192.000000 192.000000"
 preserveAspectRatio="xMidYMid meet">
<metadata>
Created by potrace 1.11, written by Peter Selinger 2001-2013
</metadata>
<g transform="translate(0.000000,192.000000) scale(0.100000,-0.100000)"
fill="#000000" stroke="none">
<path d="M242 1753 c2 -5 -12 -22 -29 -37 -18 -15 -33 -34 -33 -42 0 -9 -4
-12 -10 -9 -6 4 -10 -261 -10 -749 0 -664 2 -755 15 -750 8 4 12 10 9 15 -3 5
0 9 6 9 6 0 8 5 5 10 -3 5 -1 10 5 10 6 0 45 34 85 75 41 41 79 75 85 75 5 0
9 3 9 8 -3 17 1 35 7 29 3 -3 29 17 56 44 36 36 53 47 62 40 9 -7 16 -7 24 1
9 9 12 9 12 0 0 -10 5 -10 20 -2 14 8 20 8 20 0 0 -8 6 -8 20 0 14 8 20 8 20
0 0 -8 6 -8 20 0 14 8 20 8 20 0 0 -8 6 -8 20 0 14 8 20 8 20 0 0 -8 6 -8 20
0 15 8 20 8 20 -1 0 -8 4 -9 13 0 8 6 17 8 21 4 10 -10 46 -11 46 -1 0 5 9 4
20 -2 14 -8 20 -8 20 0 0 8 6 8 20 0 14 -8 20 -8 20 0 0 8 6 8 20 0 11 -6 20
-7 20 -2 0 10 36 9 46 -1 4 -4 13 -2 20 4 8 7 14 7 19 -1 5 -8 11 -8 21 1 11
9 14 9 14 0 0 -9 5 -9 20 -1 14 8 20 8 20 0 0 -8 6 -8 20 0 14 8 20 8 20 0 0
-8 6 -8 20 0 14 8 20 8 20 0 0 -8 6 -8 20 0 15 8 20 8 20 -1 0 -9 3 -9 14 0
10 8 16 9 21 1 4 -7 12 -7 25 0 13 7 21 7 25 0 5 -8 11 -8 20 0 10 8 15 8 20
0 5 -8 11 -8 21 1 11 9 14 9 14 0 0 -9 5 -9 20 -1 14 8 20 8 20 0 0 -8 6 -8
20 0 14 8 20 8 20 0 0 -8 6 -8 20 0 14 8 20 8 20 0 0 -8 6 -8 20 0 15 8 20 8
20 -1 0 -8 4 -9 13 0 8 6 17 8 21 4 10 -10 46 -11 46 -1 0 5 4 7 9 4 14 -9
101 41 101 58 0 5 8 15 18 23 9 8 11 12 5 8 -7 -3 -13 -1 -13 4 0 6 4 11 10
11 15 0 9 1068 -6 1078 -6 4 -10 15 -8 25 1 9 -2 15 -6 12 -5 -3 -18 5 -29 17
-12 12 -29 24 -39 27 -9 3 -326 7 -704 8 -509 2 -688 0 -688 -8 0 -8 -5 -7
-16 1 -8 8 -14 9 -12 3z"/>
</g>
</svg>
